<svg xmlns="http://www.w3.org/2000/svg" viewBox="0 0 145.29 101.88"><defs><style>.cls-1{fill:#fff;}.cls-2{fill:#f7f7f8;}.cls-3{fill:#76a9da;}.cls-4,.cls-5{fill:#707174;}.cls-5{stroke:#717175;stroke-miterlimit:10;stroke-width:0.57px;}</style></defs><title>logo</title><g id="Layer_2" data-name="Layer 2"><g id="Camada_1" data-name="Camada 1"><ellipse class="cls-1" cx="106.37" cy="62.19" rx="26.59" ry="26.96"/><ellipse class="cls-1" cx="38.53" cy="61.65" rx="26.29" ry="26.96"/><path class="cls-2" d="M0,62.81V60.64a2.79,2.79,0,0,0,.14-.47c.14-1.54.22-3.09.43-4.62A36.12,36.12,0,0,1,4.25,44.1,36.62,36.62,0,0,1,15.62,30.76a37.44,37.44,0,0,1,21.76-7.19,48.14,48.14,0,0,1,6.23.39,35.53,35.53,0,0,1,11.72,3.51,38.5,38.5,0,0,1,17,15.84c.09.15.2.3.35.52,5.74-9.75,14-16.23,24.89-18.77a38.15,38.15,0,0,1,30.72,5.59V.67c0-.23,0-.45,0-.67h17.08c0,.27,0,.55,0,.82q0,30.89,0,61.77c0,.69,0,1.38-.09,2.06a34.75,34.75,0,0,1-1.74,8.74,38.31,38.31,0,0,1-16.86,21.24,39,39,0,0,1-19.72,5.68c-1.39,0-2.79-.1-4.18-.19a31.14,31.14,0,0,1-7-1.31A39.13,39.13,0,0,1,79.12,89c-.16-.15-.35-.28-.65-.52.2,4.55.38,8.93.58,13.42-.28-.16-.41-.24-.54-.33q-7.53-4.87-15-9.77a.82.82,0,0,0-1.13,0,38.81,38.81,0,0,1-21.82,7.89,43.29,43.29,0,0,1-9-.48,36.46,36.46,0,0,1-17.84-8.15A36.94,36.94,0,0,1,.14,63.34,2.6,2.6,0,0,0,0,62.81Zm128.31-.76c-.05-.93-.09-1.86-.16-2.78A11.41,11.41,0,0,0,128,58.1a22.12,22.12,0,0,0-24.79-18A19.56,19.56,0,0,0,92,45.44a22.52,22.52,0,0,0-7,16.56,24.34,24.34,0,0,0,.39,4.41,21.48,21.48,0,0,0,6,11.8,19.93,19.93,0,0,0,18.32,5.92A22.07,22.07,0,0,0,124.25,75,20.18,20.18,0,0,0,128.31,62.05ZM60.4,61.59a19.92,19.92,0,0,0-.5-5.34,20.89,20.89,0,0,0-6.23-10.46A22.23,22.23,0,0,0,35.2,39.61a19.07,19.07,0,0,0-10.72,5,22.19,22.19,0,0,0-7.32,15.27,22.71,22.71,0,0,0,2.06,11.67,21,21,0,0,0,12,11.11,20.68,20.68,0,0,0,10.69.87,21.06,21.06,0,0,0,12-6.12A21.78,21.78,0,0,0,60.4,61.59Z"/><path class="cls-3" d="M67.66,62.08a36.35,36.35,0,0,1,3.57-15.66A36.08,36.08,0,0,0,63.6,36,36.87,36.87,0,0,0,38,25.82,35.14,35.14,0,0,0,5.1,47.54a36,36,0,0,0-2.76,14.1A35.32,35.32,0,0,0,38,97.27a36.93,36.93,0,0,0,13.58-2.33,41.43,41.43,0,0,0,11.1-6.53L76.4,97.33,75.86,85A36.37,36.37,0,0,1,67.66,62.08Zm-5,1.66a25.79,25.79,0,0,1-2.48,8.67,24.34,24.34,0,0,1-5.24,7.14,24,24,0,0,1-7.57,4.81A24.6,24.6,0,0,1,38,86.13a21.85,21.85,0,0,1-9.29-2,23.73,23.73,0,0,1-7.38-5.28,24.44,24.44,0,0,1-4.91-7.77,25.48,25.48,0,0,1-1.76-9.48,25.93,25.93,0,0,1,1.76-9.53,24.86,24.86,0,0,1,4.91-7.86,23.4,23.4,0,0,1,7.38-5.33A22,22,0,0,1,38,37a23.62,23.62,0,0,1,9.53,2,26.74,26.74,0,0,1,7.86,5.19,24.41,24.41,0,0,1,5.33,7.48,20.72,20.72,0,0,1,2,8.81Z"/><rect class="cls-3" x="130.49" y="2.34" width="12.31" height="24.82"/><path class="cls-3" d="M105.92,26.29a36.31,36.31,0,0,1,13.58,2.38,41,41,0,0,1,11,6.57v-9h12.29V63.16a36.46,36.46,0,0,1-11.24,24.53A37,37,0,0,1,120,95.12a36.55,36.55,0,0,1-14.1,2.71,34,34,0,0,1-13.57-2.76A37.23,37.23,0,0,1,81,87.5,36.24,36.24,0,0,1,73.1,76.16,35.61,35.61,0,0,1,73.1,48,36.12,36.12,0,0,1,81,36.62a37.41,37.41,0,0,1,11.39-7.57A34,34,0,0,1,105.92,26.29ZM130.5,59.73A25.36,25.36,0,0,0,128,51.1,25,25,0,0,0,122.79,44a24.34,24.34,0,0,0-16.87-6.58,22.13,22.13,0,0,0-9.33,2,23.06,23.06,0,0,0-7.43,5.33,24.68,24.68,0,0,0-4.91,7.86,25.69,25.69,0,0,0-1.76,9.53,25.32,25.32,0,0,0,1.76,9.48,24.67,24.67,0,0,0,4.91,7.81,23.06,23.06,0,0,0,7.43,5.33,22.13,22.13,0,0,0,9.33,2,23.46,23.46,0,0,0,9.53-2,25.87,25.87,0,0,0,7.81-5.19A24.56,24.56,0,0,0,128.55,72a21.21,21.21,0,0,0,1.95-8.86Z"/><path class="cls-4" d="M89.17,60l3.09-.28a3.48,3.48,0,0,0,1.12,2.15,3.56,3.56,0,0,0,2.3.69A3.63,3.63,0,0,0,98,62a1.8,1.8,0,0,0,.78-1.43,1.32,1.32,0,0,0-.33-.9A2.71,2.71,0,0,0,97.29,59c-.37-.12-1.21-.34-2.53-.65a8.68,8.68,0,0,1-3.57-1.46,3.77,3.77,0,0,1-1.45-3,3.65,3.65,0,0,1,.68-2.11,4.25,4.25,0,0,1,2-1.51,8.31,8.31,0,0,1,3.08-.51A7,7,0,0,1,99.91,51a4.26,4.26,0,0,1,1.57,3.27l-3.17.13a2.53,2.53,0,0,0-.87-1.64,3.31,3.31,0,0,0-2-.5,3.75,3.75,0,0,0-2.16.53,1.08,1.08,0,0,0-.5.92,1.13,1.13,0,0,0,.47.9,8.48,8.48,0,0,0,2.91,1,16.23,16.23,0,0,1,3.42,1.07,4.39,4.39,0,0,1,1.73,1.51,4.47,4.47,0,0,1-.12,4.74,4.42,4.42,0,0,1-2.12,1.66,9.34,9.34,0,0,1-3.41.54,7,7,0,0,1-4.57-1.3A5.58,5.58,0,0,1,89.17,60Z"/><polygon class="cls-4" points="113.55 52.53 113.59 50.02 103.4 50.02 103.4 64.85 113.36 64.85 113.39 62.35 106.78 62.35 106.78 58.31 112.47 58.31 112.47 55.82 106.78 55.82 106.78 52.53 113.55 52.53"/><path class="cls-4" d="M111.45,50v2.51h5V64.85h3.38V52.53h3.13V50Z"/><path class="cls-5" d="M92.1,74.82a1.32,1.32,0,0,0,.37,1,1.25,1.25,0,0,0,.91.4h2.08a.4.4,0,0,1,.31.13.44.44,0,0,1,.13.33h0a.42.42,0,0,1-.13.32.41.41,0,0,1-.31.14H93.38a2,2,0,0,1-1.54-.67,2.26,2.26,0,0,1-.64-1.61v-8a.49.49,0,0,1,.13-.33.46.46,0,0,1,.31-.13h0a.46.46,0,0,1,.31.13.49.49,0,0,1,.13.33Z"/><path class="cls-5" d="M103.51,71.65a.47.47,0,0,1,0,.35.43.43,0,0,1-.23.25l-2.63,1.24-2.87,1.35a2.91,2.91,0,0,0,2.37,1.35,2.67,2.67,0,0,0,1.64-.56,2.85,2.85,0,0,0,1-1.41.43.43,0,0,1,.43-.31.44.44,0,0,1,.36.19.42.42,0,0,1,0,.42,3.69,3.69,0,0,1-1.32,1.85,3.45,3.45,0,0,1-2.15.73A3.49,3.49,0,0,1,97.55,76a4,4,0,0,1,0-5.45,3.59,3.59,0,0,1,4.62-.5A3.76,3.76,0,0,1,103.51,71.65Zm-3.35-1.31a2.66,2.66,0,0,0-2,.86,2.9,2.9,0,0,0-.81,2.07,5.49,5.49,0,0,0,.07.72l5-2.38A3,3,0,0,0,100.16,70.34Z"/><path class="cls-5" d="M111.24,70.52a3.8,3.8,0,0,1,1.08,2.73v3.39a.46.46,0,0,1-.13.32.43.43,0,0,1-.31.14h0a.43.43,0,0,1-.31-.14.46.46,0,0,1-.13-.32V75.8a4.12,4.12,0,0,1-2.79,1.3A3.47,3.47,0,0,1,106,76a4,4,0,0,1,0-5.45,3.59,3.59,0,0,1,5.21,0Zm-4.59.67a3,3,0,0,0,0,4.12,2.66,2.66,0,0,0,2,.86,2.62,2.62,0,0,0,2-.86,3,3,0,0,0,0-4.12,2.57,2.57,0,0,0-2-.86A2.62,2.62,0,0,0,106.65,71.19Z"/><path class="cls-5" d="M120.46,66.33a.46.46,0,0,1,.31.13.44.44,0,0,1,.13.33v6.48A3.83,3.83,0,0,1,119.81,76a3.57,3.57,0,0,1-5.2,0,4,4,0,0,1,0-5.45,3.48,3.48,0,0,1,2.6-1.12,4.19,4.19,0,0,1,2.8,1.29v-3.9a.48.48,0,0,1,.12-.33.46.46,0,0,1,.31-.13Zm-5.22,4.87a3,3,0,0,0,0,4.13,2.7,2.7,0,0,0,4,0,3,3,0,0,0,0-4.13,2.7,2.7,0,0,0-4,0Z"/></g></g></svg>