<?xml version="1.0" encoding="UTF-8"?>
<svg id="Camada_2" data-name="Camada 2" xmlns="http://www.w3.org/2000/svg" viewBox="0 0 12.27 10.73">
  <defs>
    <style>
      .cls-1 {
        fill: #e1001a;
      }
    </style>
  </defs>
  <g id="Camada_1-2" data-name="Camada 1">
    <path class="cls-1" d="m11.82,10.27c-.07-.03-.16,0-.24,0-1.81,0-3.62,0-5.43,0h-.31s-.02-.06-.04-.09c.09-.07.18-.13.26-.21,1.94-1.93,3.87-3.87,5.81-5.8.53-.53.54-1.19,0-1.73-.69-.7-1.39-1.4-2.09-2.09-.24-.24-.52-.37-.88-.34-.36.04-.73.07-1.1.07-.72,0-1.25.31-1.75.83-1.79,1.84-3.62,3.63-5.42,5.45-.23.23-.39.53-.59.8-.07.16-.07.28,0,.49.14.22.25.47.43.65.66.69,1.35,1.35,2.02,2.04.28.29.61.41,1.01.4.93-.02,1.85-.04,2.78-.05,1.76,0,3.52,0,5.28,0,.09,0,.2.02.27-.02.08-.04.17-.14.17-.2,0-.06-.11-.15-.19-.18Zm-9.14-.39c-.61-.66-1.26-1.27-1.89-1.9-.38-.38-.38-.75,0-1.14.96-.97,1.94-1.91,2.88-2.9.31-.33.61-.3,1.02-.19-.23.23-.43.42-.63.62-.71.71-1.42,1.42-2.13,2.13-.54.55-.54,1.2,0,1.75.58.59,1.16,1.16,1.74,1.75.07.07.13.14.21.23-.49.08-.87.01-1.21-.36Zm1.61.08c-.67-.67-1.34-1.34-2.01-2.01-.4-.4-.4-.75,0-1.16.91-.91,1.83-1.83,2.74-2.74.03-.03.17-.12.31-.2,1.04,1.02,2.07,2.04,3.17,3.11-.16.12-.3.21-.4.31-.9.89-1.79,1.78-2.68,2.67-.39.39-.74.39-1.13,0Z"/>
  </g>
</svg>