<?xml version="1.0" encoding="UTF-8"?>
<svg id="Camada_2" data-name="Camada 2" xmlns="http://www.w3.org/2000/svg" viewBox="0 0 17.78 14.25">
  <defs>
    <style>
      .cls-1 {
        fill: #707173;
      }
    </style>
  </defs>
  <g id="Camada_1-2" data-name="Camada 1">
    <g>
      <path class="cls-1" d="m17.78,5.25v5.76c-.03.1-.07.19-.08.29-.19,1.71-1.57,2.94-3.29,2.94-3.69,0-7.37,0-11.06,0-1.52,0-2.82-1.02-3.18-2.5-.06-.24-.11-.49-.16-.74v-7.01s.06-.08.07-.12c.08-.78.5-1.32,1.19-1.67.08-.04.14-.17.16-.27.1-.39.28-.55.68-.56.44,0,.88-.03,1.32.01.2.02.47.17.54.33.13.28.29.35.56.33.18-.01.38.03.55-.01.16-.04.35-.13.43-.26.26-.39.48-.82.71-1.23C6.42.18,6.74,0,7.17,0c1.61,0,3.21,0,4.82,0,.43,0,.75.19.96.57.16.3.36.57.49.88.19.46.49.64,1.01.62,1.74-.05,2.93,1.26,3.2,2.54.04.21.09.42.13.64Zm-13.09,2.22c.01,2.55,1.99,4.87,4.88,4.87,2.76,0,4.88-2.13,4.87-4.88,0-2.91-2.34-4.87-4.88-4.87-2.69,0-4.87,2.19-4.87,4.88Zm-1.96-5.17c-.61,0-1.09.47-1.09,1.06,0,.57.52,1.08,1.1,1.07.58,0,1.04-.48,1.05-1.07,0-.62-.44-1.07-1.06-1.07Z"/>
      <path class="cls-1" d="m6.35,7.45c0-1.8,1.44-3.22,3.25-3.22,1.77,0,3.22,1.45,3.22,3.22,0,1.77-1.48,3.25-3.25,3.25-1.78,0-3.23-1.46-3.22-3.25Z"/>
    </g>
  </g>
</svg>