<?xml version="1.0" encoding="UTF-8"?>
<svg id="Camada_2" data-name="Camada 2" xmlns="http://www.w3.org/2000/svg" viewBox="0 0 48.96 48.96">
  <defs>
    <style>
      .cls-1 {
        fill: #f6f6f6;
        stroke: #1085c6;
        stroke-width: .57px;
      }

      .cls-2 {
        fill: #e7e7e7;
      }

      .cls-3 {
        fill: #1085c6;
      }
    </style>
  </defs>
  <g id="Camada_1-2" data-name="Camada 1">
    <g>
      <g>
        <circle class="cls-3" cx="24.48" cy="24.48" r="24.48" transform="translate(-10.14 24.48) rotate(-45)"/>
        <circle class="cls-2" cx="24.48" cy="24.48" r="22.39"/>
      </g>
      <g>
        <g>
          <path class="cls-3" d="m12.7,27.19h-1.25c-1,0-1.8.72-1.8,1.61v4.66c0,.89.81,1.61,1.8,1.61h1.25c1,0,1.8-.72,1.8-1.61v-4.66c0-.89-.81-1.61-1.8-1.61Zm-1.04,2.65c-.98,0-.98-1.52,0-1.52s.98,1.52,0,1.52Z"/>
          <path class="cls-3" d="m24.9,28.5c0-.78.11-1.55.31-2.27-.94.17-1.89.37-2.82.37-1.68,0-3.32-.67-5-.62-.8.02-1.08-.34-1.08-1.24,0-.85.26-1.18,1.02-1.17,3.03.03,6.06.03,9.09,0,1.61-2.37,4.33-3.95,7.36-3.95.49,0,.98.04,1.45.12.29-.61,1.12-.58,1.67-.92.79-.49.91-1.78.22-2.3-1.04-.77-2.52-.43-3.21.81-.63-1.09-.94-2.31-1.37-3.45-.5-1.33-1.28-2.01-2.61-1.99-4.75.04-9.51-.07-14.26.21-2.77.16-2.77.08-3.82,3.09-.32.93-.62,1.87-1,3.02-.31-2.02-.7-2.33-2.27-2-.1.02-.19.05-.28.08-.54.12-1.01.34-1.07,1.08-.06.78.31,1.27.88,1.57.44.24.89.43,1.35.61.55.21.6.53.3,1.08-.41.75-.9,1.48-.98,2.4-.2,2.37-.27,4.74,0,7.11.07.64.28,1.14.93,1.21,1.8.21,3.6.47,5.4.63,3.55.31,7.11.33,10.66.28-.55-1.14-.85-2.42-.85-3.75Zm-12.29-10.94c.04-.18.08-.36.12-.54.65-2.61,1.03-3.1,3.37-3.22,4.65-.25,9.3-.31,13.96,0,.78.05,1.27.41,1.47,1.3.2.9.41,1.8.66,2.68.26.92-.1,1.09-.81,1.05-2.55-.14-5.1-.33-7.55-.2-3.54-.16-6.96.26-10.39.21-1.07-.02-1.11-.05-.83-1.27Zm-.96,12.28c-.98,0-.98-1.52,0-1.52s.98,1.52,0,1.52Zm1.83-3.41c-1.22.16-1.84-.06-2.56-.61-.4-.3-.77-.6-.88-1.19-.12-.68,0-1.09.7-1.06.61.02,1.22,0,1.84,0,.55,0,1.1.02,1.64-.01.65-.04.92.24.93,1.02.02,1.56.33,2.78-1.66,1.85Z"/>
        </g>
        <circle class="cls-1" cx="33.95" cy="28.62" r="8.08"/>
        <path class="cls-3" d="m39.32,29.53h-4.58v4.58h-1.51v-4.58h-4.58v-1.45h4.58v-4.58h1.51v4.58h4.58v1.45Z"/>
      </g>
    </g>
  </g>
</svg>