<?xml version="1.0" encoding="UTF-8"?>
<svg id="Camada_2" data-name="Camada 2" xmlns="http://www.w3.org/2000/svg" viewBox="0 0 27.21 20.58">
  <defs>
    <style>
      .cls-1 {
        fill: #fff;
      }

      .cls-2 {
        fill: #1085c6;
      }
    </style>
  </defs>
  <g id="Camada_1-2" data-name="Camada 1">
    <g>
      <polygon class="cls-2" points="20.08 0 .3 0 0 20.57 20.08 20.57 20.08 0"/>
      <path class="cls-2" d="m19.21,0c4.42,0,8,3.77,8,8.42v3.74c0,4.65-3.58,8.42-8,8.42"/>
    </g>
    <g>
      <path class="cls-1" d="m6.19,6.75c.05-.16.08-.33.15-.48.29-.59.78-.89,1.44-.9,2.08,0,4.16,0,6.24,0,.03,0,.05,0,.1,0-.11.11-.2.2-.3.3-.37.36-.73.72-1.1,1.07-.05.05-.11.08-.19.08-1.58,0-3.16,0-4.74,0q-.14,0-.14.14c0,2.57,0,5.13,0,7.7q0,.13.13.13c2.57,0,5.15,0,7.72,0,.1,0,.13-.03.13-.13,0-1.6,0-3.19,0-4.79,0-.09.02-.15.08-.21.43-.42.86-.85,1.3-1.27.02-.02.04-.03.08-.06,0,.05,0,.08,0,.12,0,2.06,0,4.12,0,6.18,0,.5-.17.92-.54,1.25-.22.19-.47.3-.75.36-.03,0-.06.02-.09.02H7.56s-.07-.02-.1-.03c-.59-.13-.99-.48-1.19-1.05-.03-.1-.05-.2-.08-.29V6.75Z"/>
      <path class="cls-1" d="m6.19,14.9c.03.1.05.2.08.29.2.57.6.92,1.19,1.05.03,0,.07.02.1.03h-1.37v-1.37Z"/>
      <path class="cls-1" d="m9.76,12.69c.1-.31.19-.6.28-.89.13-.43.27-.86.4-1.3.04-.14.16-.22.26-.32.68-.69,1.37-1.37,2.05-2.06.6-.6,1.2-1.2,1.8-1.8.19-.19.38-.38.57-.58.02-.02.04-.04.06-.06.52.52,1.04,1.04,1.57,1.57-.12.12-.25.25-.37.38-.57.57-1.14,1.14-1.7,1.7-.49.49-.99.99-1.48,1.48-.37.37-.74.74-1.12,1.11-.02.02-.06.05-.09.06-.73.23-1.46.46-2.2.69,0,0-.02,0-.05,0Zm1.77-1.95c1.35-1.33,2.7-2.65,4.05-3.98-.1-.09-.19-.17-.28-.26-1.34,1.32-2.69,2.64-4.04,3.98.1.09.18.18.28.27Z"/>
      <path class="cls-1" d="m18.61,5.41c-.17.16-.34.33-.5.49-.51-.51-1.03-1.03-1.54-1.55.16-.15.33-.32.5-.49.51.51,1.02,1.03,1.55,1.55Z"/>
      <path class="cls-1" d="m17.21,6.81c-.53-.53-1.05-1.04-1.57-1.56.17-.16.34-.33.5-.49.51.52,1.04,1.04,1.55,1.56-.16.16-.32.33-.49.49Z"/>
    </g>
  </g>
</svg>