<?xml version="1.0" encoding="UTF-8"?>
<svg id="Camada_2" data-name="Camada 2" xmlns="http://www.w3.org/2000/svg" viewBox="0 0 43.72 24.38">
  <defs>
    <style>
      .cls-1 {
        fill: #fcfdfd;
      }

      .cls-2 {
        fill: #fdfefe;
      }

      .cls-3 {
        fill: #f6f6f6;
      }

      .cls-4 {
        fill: #008541;
      }

      .cls-5 {
        fill: #008540;
      }

      .cls-6 {
        fill: #fbfdfc;
      }

      .cls-7 {
        fill: #f8fbfa;
      }

      .cls-8 {
        fill: #fbfcfc;
      }
    </style>
  </defs>
  <g id="Camada_1-2" data-name="Camada 1">
    <g>
      <g>
        <path class="cls-4" d="m14.06,12.29c0,3.79-.02,7.58.02,11.37,0,.67-.18.8-.81.7-4.18-.7-8.35-1.37-12.53-2.04-.53-.08-.73-.24-.73-.84C.03,15.29.04,9.1,0,2.92c0-.69.3-.78.82-.87C4.97,1.39,9.12.72,13.26.03c.6-.1.82,0,.81.69-.04,3.85-.02,7.71-.02,11.56Z"/>
        <path class="cls-5" d="m24.52,12.16c0,2.88-.02,5.76.01,8.64,0,.77-.25,1.02-1.01,1.01-2.59-.03-5.18-.03-7.77,0-.52,0-.8-.1-.72-.68.04-.32.03-.65,0-.97-.04-.42.12-.58.54-.57.65.02,1.3-.03,1.94.02.6.04.83-.19.75-.78-.03-.22-.03-.46,0-.68.1-.67-.15-.93-.84-.86-.61.06-1.23,0-1.84.01-.32,0-.56-.03-.55-.46,0-.45.28-.43.58-.43.65,0,1.3-.03,1.94.01.54.03.73-.12.73-.7,0-1.56.04-1.56-1.51-1.56-.36,0-.71,0-1.07,0-.32,0-.66.08-.68-.44-.02-.51.3-.47.63-.47.65,0,1.3-.02,1.94,0,.49.02.67-.11.68-.64.03-1.67.06-1.67-1.59-1.67-.39,0-.78,0-1.17,0-.26,0-.52.02-.5-.39.02-.37.24-.4.52-.4.68,0,1.36-.03,2.04.01.57.04.7-.19.7-.72,0-1.56.03-1.56-1.51-1.56-.39,0-.78,0-1.17,0-.3,0-.58.03-.58-.42,0-.43.23-.46.55-.45.68,0,1.36-.02,2.04.01.5.03.66-.13.67-.65.03-1.66.05-1.66-1.61-1.66h-.29c-1.28,0-1.71-.63-1.34-1.89.09-.32.3-.29.51-.3,2.75,0,5.5,0,8.26,0,.74,0,.72.46.72.98,0,2.88,0,5.76,0,8.65Z"/>
        <path class="cls-2" d="m10.42,16.63c-.1.06-.12.09-.15.09q-1.92.04-2.67-1.71c-.26-.61-.49-1.24-.77-1.97-.41.96-.79,1.87-1.17,2.77-.21.49-1.7.87-2.07.51-.23-.22.01-.41.11-.59.52-1.04,1.02-2.09,1.59-3.1.32-.55.39-1,.07-1.59-.54-.99-.95-2.04-1.45-3.05-.24-.49-.34-.69.4-.82,1.05-.19,1.53.1,1.76,1.12.16.71.51,1.38.81,2.16.3-.76.56-1.41.83-2.06q.69-1.65,2.65-1.45c-.7,1.44-1.36,2.86-2.07,4.26-.21.42-.21.73,0,1.14.74,1.42,1.42,2.87,2.13,4.3Z"/>
        <path class="cls-6" d="m20.91,7.03h-.19c-1.65,0-1.88-.29-1.6-1.93.06-.38.27-.38.54-.38.84,0,1.68.03,2.52,0,.54-.02.63.21.65.69.05,1.63.07,1.63-1.91,1.63Z"/>
        <path class="cls-7" d="m20.94,10.17c-.23,0-.46-.03-.68,0-.95.17-1.17-.22-1.17-1.15,0-.94.25-1.27,1.19-1.15.61.08,1.23.03,1.84,0,.47-.02.68.08.7.63.05,1.66.08,1.66-1.89,1.66Z"/>
        <path class="cls-8" d="m20.82,10.96c.35,0,.58.03.8,0,.99-.18,1.23.21,1.23,1.19,0,.96-.28,1.26-1.19,1.12-.38-.06-.77,0-1.16,0-1.37,0-1.32,0-1.38-1.37-.08-1.74,1.25-.55,1.7-.93Z"/>
        <path class="cls-7" d="m20.92,19.6h-.29c-1.52,0-1.83-.42-1.51-1.93.09-.43.37-.37.64-.37.81,0,1.61.03,2.42-.01.52-.02.64.18.64.67.03,1.65.05,1.65-1.9,1.65Z"/>
        <path class="cls-1" d="m20.95,16.41c-.26,0-.52-.03-.77,0-.82.13-1.13-.13-1.07-1.02.1-1.38-.14-1.22,1.26-1.23.32,0,.65,0,.97,0,1.54,0,1.75.28,1.48,1.85-.06.35-.23.4-.51.4-.45,0-.9,0-1.35,0Z"/>
        <g>
          <path class="cls-6" d="m16.41,7.03h-.19c-1.65,0-1.88-.29-1.6-1.93.06-.38.27-.38.54-.38.84,0,1.68.03,2.52,0,.54-.02.63.21.65.69.05,1.63.07,1.63-1.91,1.63Z"/>
          <path class="cls-7" d="m16.44,10.17c-.23,0-.46-.03-.68,0-.95.17-1.17-.22-1.17-1.15,0-.94.25-1.27,1.19-1.15.61.08,1.23.03,1.84,0,.47-.02.68.08.7.63.05,1.66.08,1.66-1.89,1.66Z"/>
          <path class="cls-8" d="m16.32,10.96c.35,0,.58.03.8,0,.99-.18,1.23.21,1.23,1.19,0,.96-.28,1.26-1.19,1.12-.38-.06-.77,0-1.16,0-1.37,0-1.32,0-1.38-1.37-.08-1.74,1.25-.55,1.7-.93Z"/>
          <path class="cls-7" d="m16.42,19.6h-.29c-1.52,0-1.83-.42-1.51-1.93.09-.43.37-.37.64-.37.81,0,1.61.03,2.42-.01.52-.02.64.18.64.67.03,1.65.05,1.65-1.9,1.65Z"/>
          <path class="cls-1" d="m16.45,16.41c-.26,0-.52-.03-.77,0-.82.13-1.13-.13-1.07-1.02.1-1.38-.14-1.22,1.26-1.23.32,0,.64,0,.97,0,1.54,0,1.75.28,1.48,1.85-.06.35-.23.4-.51.4-.45,0-.9,0-1.35,0Z"/>
        </g>
      </g>
      <g>
        <circle class="cls-4" cx="35.36" cy="11.91" r="8.36"/>
        <path class="cls-3" d="m33.8,11.14h-2.48c1.32,1.34,2.65,2.68,3.98,4.03,1.34-1.36,2.67-2.7,3.99-4.03h-2.47v-3.68h-3.01v3.69Zm-2.73,5.24h8.58v-.26q0-.17-.18-.18c-2.75,0-5.5,0-8.25,0-.03,0-.06,0-.08,0-.03.01-.07.04-.07.06,0,.12,0,.24,0,.37Z"/>
      </g>
    </g>
  </g>
</svg>