<?xml version="1.0" encoding="UTF-8"?>
<svg id="Camada_2" data-name="Camada 2" xmlns="http://www.w3.org/2000/svg" viewBox="0 0 32.8 33.37">
  <defs>
    <style>
      .cls-1 {
        fill: #0a71b3;
      }
    </style>
  </defs>
  <g id="Camada_1-2" data-name="Camada 1">
    <g>
      <path class="cls-1" d="m15.23,13.85h-2.09v-1.57h4.87c0,.19,0,.37,0,.55.03,2.7.04,5.41.09,8.11,0,.49.1,1.01.25,1.48.6,1.84,2.12,2.67,4.21,2.43,2.57-.29,4.41-1.8,5.71-3.92,2.32-3.79,2.36-7.8.48-11.72-2.19-4.55-6-7.02-10.98-7.54C10.48.92,5.03,5.88,3.45,12.01c-1.34,5.21-.58,10.12,2.67,14.49,1.92,2.59,4.67,3.97,7.73,4.71,4.81,1.16,9.38.53,13.67-1.99.07-.04.14-.07.25-.13.22.4.43.78.69,1.24-.73.39-1.41.8-2.13,1.13-3.77,1.73-7.73,2.2-11.83,1.73-2.09-.24-4.1-.77-6.01-1.67-4.3-2.02-6.86-5.46-7.93-10.01C-.68,16.29.1,11.37,3.35,7.02,6.34,3.03,10.44.85,15.34.18c3.88-.53,7.57.1,10.9,2.21,4.69,2.98,6.84,7.36,6.52,12.86-.33,5.89-4.55,10.34-10.41,11.21-1.21.18-2.41.15-3.59-.2-2.12-.62-3.37-2.11-3.45-4.32-.09-2.48-.06-4.97-.09-7.45,0-.19,0-.37,0-.65Z"/>
      <path class="cls-1" d="m18.41,7.83c0,1.27-.93,2.23-2.17,2.23-1.23,0-2.21-.96-2.23-2.2-.02-1.25.96-2.25,2.22-2.25,1.25,0,2.18.94,2.18,2.21Z"/>
    </g>
  </g>
</svg>