<?xml version="1.0" encoding="UTF-8"?>
<svg id="Camada_2" data-name="Camada 2" xmlns="http://www.w3.org/2000/svg" viewBox="0 0 13.37 15.86">
  <defs>
    <style>
      .cls-1 {
        fill: #fff;
      }

      .cls-2 {
        fill: #e2001a;
      }
    </style>
  </defs>
  <g id="Camada_1-2" data-name="Camada 1">
    <g>
      <path class="cls-2" d="m8.48,0c.14.17.33.15.5.19.56.16.77.45.62,1.09-.11.48.04.59.4.65.87.15,1.74.33,2.61.51.57.12.81.38.75.82-.06.44-.41.66-.98.55-2.11-.41-4.22-.83-6.33-1.25-.68-.13-1.35-.27-2.03-.4-.62-.12-.9-.42-.83-.88.08-.49.42-.66,1.07-.53.85.17,1.71.34,2.56.53.33.07.49.01.5-.41,0-.38.18-.68.47-.87h.69Z"/>
      <path class="cls-2" d="m8.38,15.85c-1,0-2,0-3,0-.56,0-.78-.21-.86-.84-.32-2.54-.63-5.08-.94-7.63-.02-.18-.06-.4.16-.46.25-.06.24.2.29.36.12.41.15.88.74.68.26-.09.21.27.23.44.18,1.59.34,3.19.51,4.78.01.13.02.26.05.39.08.37.25.64.61.58.36-.05.5-.35.46-.73-.11-1.24-.23-2.48-.35-3.72-.1-1.05-.21-2.1-.33-3.15-.02-.2-.01-.37.1-.53.02-.03.04-.06.06-.09q.95-1.54,2.62-1.55c1.18,0,2.36-.01,3.54-.02.92,0,1.13.25,1.02,1.27-.32,3.02-.65,6.03-.99,9.05-.12,1.04-.25,1.16-1.16,1.16-.92,0-1.83,0-2.75,0h0Z"/>
      <path class="cls-2" d="m.01,8.67c-.09-1.49.45-2.55,1.53-3.36.47-.35.96-.67,1.53-.84.39-.12.47-.33.34-.68-.05-.13-.15-.3-.04-.4.14-.13.31.02.45.07.83.33,1.66.68,2.5,1,.35.13.37.27.15.55-.58.71-1.13,1.44-1.69,2.16-.08.1-.14.25-.28.25-.16-.01-.14-.19-.18-.3-.21-.63-.2-.62-.86-.47-1.33.3-2.46.91-3.45,2.02Z"/>
      <path class="cls-1" d="m11.81,6.95c-.22,2.13-.44,4.3-.67,6.47-.06.55-.36.86-.69.76-.42-.12-.49-.49-.45-.93.22-2.14.43-4.28.66-6.41.06-.55.33-.87.67-.8.4.09.5.44.49.9Z"/>
      <path class="cls-1" d="m8.88,10.09c0,1.13,0,2.26,0,3.4,0,.4-.16.73-.54.72-.38,0-.53-.32-.54-.73,0-.02,0-.04,0-.06-.01-2.19-.03-4.38-.03-6.57,0-.55.25-.9.59-.86.45.05.53.43.53.86,0,1.08,0,2.15,0,3.23h0Z"/>
      <path class="cls-1" d="m6.29,10.1h0c-.11-1.07-.22-2.14-.33-3.21,0-.09-.03-.17-.06-.25-.21.47-.51.9-.9,1.24-.02.02-.04.05-.06.07.2,1.86.4,3.73.6,5.59,0,.02,0,.04,0,.06.05.41.24.7.61.66.38-.04.5-.38.47-.78-.11-1.13-.23-2.25-.35-3.38Z"/>
    </g>
  </g>
</svg>