<?xml version="1.0" encoding="UTF-8"?>
<svg id="Camada_2" data-name="Camada 2" xmlns="http://www.w3.org/2000/svg" viewBox="0 0 17.18 17.91">
  <defs>
    <style>
      .cls-1 {
        fill: #fff;
      }
    </style>
  </defs>
  <g id="Camada_1-2" data-name="Camada 1">
    <g>
      <path class="cls-1" d="m1.34,17.6c.51.45,1.3.41,1.75-.1l3.46-3.89c.45-.51.41-1.3-.1-1.75l-.93-.82c-.51-.45-1.3-.41-1.75.1L.31,15.03c-.45.51-.41,1.3.1,1.75l.93.82Z"/>
      <path class="cls-1" d="m16.81,4.21C15.64.91,12.01-.81,8.71.37c-2.61.94-4.23,3.41-4.21,6.04.01.68.13,1.38.37,2.07,1.18,3.29,4.81,5.01,8.11,3.83,2.61-.93,4.23-3.4,4.2-6.03,0-.69-.12-1.39-.37-2.07Zm-4.41,6.48c-1.16.42-2.42.36-3.53-.17-1.12-.53-1.96-1.46-2.38-2.62-.17-.49-.26-1-.27-1.51-.02-1.97,1.21-3.74,3.07-4.4,1.16-.41,2.42-.35,3.53.18,1.12.52,1.96,1.45,2.37,2.62.18.49.27.99.28,1.51.02,1.96-1.22,3.73-3.07,4.39Z"/>
    </g>
  </g>
</svg>