<?xml version="1.0" encoding="UTF-8"?>
<svg id="Camada_2" data-name="Camada 2" xmlns="http://www.w3.org/2000/svg" viewBox="0 0 46.76 30.59">
  <defs>
    <style>
      .cls-1 {
        fill: #707173;
      }

      .cls-2 {
        fill: #40a52b;
        font-family: Tahoma, Tahoma;
        font-size: 11px;
      }

      .cls-3 {
        fill: #e7e7e7;
      }
    </style>
  </defs>
  <g id="Camada_1-2" data-name="Camada 1">
    <text class="cls-2" transform="translate(0 25.98)"><tspan x="0" y="0">Opcionais</tspan></text>
    <g>
      <polygon class="cls-3" points="29.42 4.15 12.36 7.25 14.82 .18 27.77 .24 29.42 4.15"/>
      <g>
        <polygon class="cls-3" points="23.15 9.52 13.63 12.54 12.78 7.32 23.95 7.78 23.15 9.52"/>
        <path class="cls-3" d="m33.55,11.16c0,2.44-2.06,4.42-4.59,4.42s-4.59-1.98-4.59-4.42,2.06-4.42,4.59-4.42,4.59,1.98,4.59,4.42Z"/>
        <g>
          <g>
            <path class="cls-1" d="m14.87,10.24h-.84c-.67,0-1.21.48-1.21,1.08v3.12c0,.6.54,1.08,1.21,1.08h.84c.67,0,1.21-.48,1.21-1.08v-3.12c0-.6-.54-1.08-1.21-1.08Zm-.7,1.78c-.66,0-.66-1.02,0-1.02s.66,1.02,0,1.02Z"/>
            <path class="cls-1" d="m23.04,11.11c0-.52.07-1.03.2-1.52-.63.12-1.26.25-1.89.25-1.12,0-2.22-.45-3.34-.42-.54.01-.72-.23-.72-.83,0-.57.17-.79.68-.78,2.03.02,4.06.02,6.08,0,1.08-1.59,2.89-2.64,4.92-2.64.33,0,.65.03.97.08.19-.41.75-.39,1.12-.61.53-.33.61-1.19.15-1.54-.69-.52-1.68-.29-2.15.55-.42-.73-.63-1.54-.92-2.31C27.82.44,27.29,0,26.4,0c-3.18.03-6.36-.05-9.54.14-1.85.11-1.86.05-2.56,2.07-.22.62-.42,1.25-.67,2.02-.21-1.35-.47-1.56-1.52-1.34-.06.01-.13.04-.19.05-.36.08-.68.23-.72.72-.04.52.21.85.59,1.05.29.16.6.29.91.41.37.14.4.36.2.72-.28.5-.6.99-.65,1.61-.14,1.58-.18,3.17,0,4.76.05.43.19.76.62.81,1.2.14,2.41.32,3.61.42,2.38.2,4.75.22,7.13.19-.37-.77-.57-1.62-.57-2.51ZM14.81,3.79c.03-.12.05-.24.08-.36.43-1.75.69-2.07,2.26-2.16,3.11-.17,6.22-.21,9.34,0,.52.03.85.28.98.87.13.6.28,1.2.44,1.79.17.62-.07.73-.54.7-1.71-.09-3.41-.22-5.05-.13-2.37-.11-4.66.17-6.95.14-.72-.01-.74-.03-.56-.85Zm-.64,8.22c-.66,0-.66-1.02,0-1.02s.66,1.02,0,1.02Zm1.23-2.28c-.82.11-1.23-.04-1.71-.41-.27-.2-.51-.4-.59-.8-.08-.45,0-.73.47-.71.41.01.82,0,1.23,0,.37,0,.73.02,1.1,0,.44-.03.62.16.62.68.01,1.04.22,1.86-1.11,1.24Z"/>
          </g>
          <path class="cls-1" d="m31.99,15.62c-.14-.09-.27-.18-.4-.27-.07-.05-.12-.06-.18-.01-.04.03-.09.06-.14.07-.25.04-.24.23-.25.41-.01.3-.01.3-.3.38-.15.04-.29.08-.44.11-.05,0-.12-.03-.17-.06-.05-.05-.1-.11-.13-.18-.07-.18-.19-.21-.38-.19-.21.02-.32.08-.39.28-.11.3-.12.29-.43.26-.14-.01-.27-.03-.41-.04-.1,0-.17-.04-.18-.15,0-.01-.01-.03-.01-.04,0-.33-.19-.48-.5-.51-.05,0-.11,0-.15.04-.08.06-.15.14-.22.22-.08.1-.16.13-.29.06-.17-.1-.36-.18-.53-.28-.04-.02-.06-.09-.08-.15,0-.02,0-.05,0-.07.13-.32-.01-.52-.29-.66-.04-.02-.09-.03-.13-.01-.1.04-.2.08-.29.13-.13.08-.21.04-.3-.06-.12-.15-.25-.29-.38-.43-.06-.07-.06-.13-.02-.19.01-.02.02-.04.03-.05.19-.23.21-.45,0-.68-.06-.07-.1-.13-.2-.1-.02,0-.04,0-.06,0q-.4.02-.55-.35c-.18-.45-.18-.45.2-.75.07-.05.08-.11.07-.19,0-.3-.14-.49-.46-.52-.14-.01-.19-.1-.18-.23,0-.21,0-.41.02-.62,0-.04.05-.09.08-.11.12-.05.24-.08.36-.13.05-.02.1-.08.12-.14.12-.29.04-.51-.24-.66-.11-.06-.13-.15-.07-.27.08-.17.14-.35.21-.53.03-.08.08-.13.17-.11.11.01.22,0,.32.02.1.01.15-.03.21-.11.17-.22.22-.43.02-.65-.11-.12-.08-.24.04-.35.12-.11.23-.24.34-.37.07-.08.15-.13.25-.05,0,0,.02,0,.03.01.26.19.49.15.69-.09.04-.04.07-.1.07-.15,0-.08-.02-.15-.03-.23-.04-.31-.06-.23.18-.37.15-.09.31-.16.48-.23.04-.02.11,0,.15.03.09.07.17.16.25.24.02.02.04.05.06.06.08.06.53-.1.55-.2.02-.08.03-.15.05-.23.06-.25.06-.25.31-.28.17-.02.34-.02.51-.04.08,0,.13.02.16.1.05.12.1.24.16.35.02.04.08.06.12.09,0,0,0,0,.01,0,.31.09.52-.02.64-.31.04-.1.12-.14.24-.1.19.07.39.12.59.17.08.02.11.07.11.15,0,.07.02.15.01.22-.03.2.07.3.25.36.08.03.15.08.22.11.12-.08.25-.16.37-.24.08-.05.14-.06.22,0,.16.12.32.24.49.36.08.06.11.11.07.21-.05.11-.07.22-.12.33-.03.07,0,.12.04.18.18.28.4.33.69.2.11-.05.18-.01.24.09.1.17.21.34.32.51.05.07.05.13-.01.2-.02.02-.03.04-.05.06-.27.2-.25.44-.09.69.02.04.07.08.12.1.09.02.18.04.28.04.16,0,.24.07.26.23.02.18.06.36.09.54.02.09,0,.15-.09.19-.02,0-.04.03-.06.04-.33.09-.39.32-.34.61,0,.05.05.1.08.13.03.03.07.04.1.06.39.23.33.09.27.55-.07.5-.08.5-.59.56-.01,0-.03,0-.04,0-.1.03-.24.48-.18.56.08.09.17.18.23.28.03.05.05.13.02.18-.11.2-.24.4-.36.59-.02.03-.08.05-.12.04-.12-.02-.24-.03-.34-.08-.13-.06-.2,0-.27.09-.02.02-.03.06-.05.07-.21.13-.15.3-.08.48.1.26.09.27-.13.44-.15.12-.31.23-.48.35Zm-1.56-3.35c.53.73,1.05,1.45,1.58,2.17,1.34-1.1,1.81-2.9,1.42-4.27,0,0-.01,0-.01,0-.82.27-1.65.53-2.47.8-.03,0-.06.06-.06.1.02.46-.14.86-.45,1.21Zm-5.59-2.11c-.38,1.4.09,3.21,1.42,4.28.52-.72,1.05-1.44,1.58-2.17-.31-.35-.47-.75-.46-1.21,0-.04-.06-.09-.1-.11-.39-.13-.78-.26-1.17-.38-.42-.14-.84-.27-1.26-.41Zm8.35-.73c-.64-1.49-2.16-2.51-3.66-2.59v2.69c.46.11.82.36,1.09.74.86-.28,1.71-.55,2.57-.83Zm-8.1,0c.86.28,1.71.56,2.56.83.24-.35.56-.59.97-.71.1-.03.13-.07.13-.17,0-.81,0-1.62,0-2.43,0-.04,0-.09,0-.13-1.73.13-3.13,1.31-3.65,2.6Zm6.29,5.48s-.04-.06-.05-.08c-.49-.68-.99-1.36-1.48-2.04-.06-.09-.12-.07-.2-.04-.35.11-.7.11-1.04,0-.1-.03-.15-.02-.2.07-.35.49-.71.99-1.07,1.48-.15.2-.29.4-.45.62,1.5.79,2.98.79,4.49,0Zm-1.12-4.31s-.01.03-.02.04c-.05-.02-.12-.04-.16-.07-.02-.02,0-.08,0-.13.01-.07.03-.14.05-.21-.07.01-.13.02-.2.03,0,0-.02,0-.03.01-.09.03-.15-.02-.15-.11,0-.08-.01-.15-.02-.23-.06.04-.13.07-.19.12-.09.07-.17.04-.19-.07,0-.04-.01-.08-.03-.11-.02-.03-.05-.08-.07-.07-.03,0-.08.04-.09.07-.13.25-.14.25-.3.04-.02-.03-.07-.04-.1-.06-.02.04-.05.07-.06.11-.01.04,0,.08,0,.12-.01.1-.07.12-.16.09-.04-.01-.06-.05-.1-.07-.04-.02-.09-.02-.13-.03,0,.05-.03.1-.01.14.07.23.04.26-.19.21-.02,0-.04-.02-.06-.01-.03,0-.07.02-.08.04-.01.02,0,.06.01.09.03.04.06.07.09.11.05.07.02.15-.06.17-.03,0-.07,0-.1.01-.04.02-.08.05-.12.08.03.03.05.07.08.1.02.02.04.02.06.04.11.07.1.15,0,.22-.05.04-.09.09-.14.14.06.03.11.05.17.08,0,0,.02,0,.03,0,.12.02.15.1.07.19-.03.03-.06.07-.08.1-.01.02-.02.06,0,.07.02.02.05.05.08.05.03,0,.07-.02.1-.02.06,0,.13,0,.17.03.02.02,0,.1,0,.15,0,.06,0,.12,0,.17.06-.02.12-.03.18-.05.02,0,.03-.02.05-.03.07-.05.16,0,.17.08,0,.05,0,.11,0,.16.02.09.08.1.14.04.03-.03.05-.08.08-.12.06-.09.15-.08.2.02.02.04.02.08.05.11.02.03.06.07.08.06.03,0,.06-.05.08-.08.01-.02.01-.05.02-.07.03-.05.05-.11.09-.12.04-.01.09.03.14.06.05.03.1.06.15.09.01-.06.03-.11.04-.17.01-.06,0-.14.04-.16.03-.02.11,0,.16.02.05,0,.11,0,.16.01,0-.05-.01-.11-.02-.16-.01-.06-.05-.14-.03-.18.03-.04.11-.03.18-.05.05-.01.09-.03.14-.04-.02-.04-.03-.09-.06-.13-.01-.02-.05-.04-.07-.06-.08-.07-.07-.16.04-.2.05-.02.1-.02.14-.04.07-.04.08-.1,0-.14-.03-.02-.07-.02-.1-.04-.05-.03-.11-.07-.13-.11,0-.03.06-.08.08-.13.03-.05.06-.1.09-.15-.05-.02-.1-.04-.15-.06Z"/>
        </g>
      </g>
    </g>
  </g>
</svg>