<?xml version="1.0" encoding="UTF-8"?>
<svg id="Camada_2" data-name="Camada 2" xmlns="http://www.w3.org/2000/svg" viewBox="0 0 126.45 47.37">
  <defs>
    <style>
      .cls-1 {
        letter-spacing: -.02em;
      }

      .cls-2, .cls-3 {
        fill: #fff;
      }

      .cls-3 {
        font-family: Tahoma, Tahoma;
        font-size: 16.95px;
      }

      .cls-4 {
        fill: #f29400;
      }
    </style>
  </defs>
  <g id="Camada_1-2" data-name="Camada 1">
    <path class="cls-4" d="m126.45,34.52c0,4.77-.99,8.5-5.87,8.5l-95.23.14c-4.87,0-8.82-3.87-8.82-8.64V14.28c0-4.77,3.95-8.64,8.82-8.64l95.44-.28c4.87,0,5.66,4.15,5.66,8.92v20.24Z"/>
    <ellipse class="cls-4" cx="24.13" cy="23.68" rx="24.13" ry="23.68"/>
    <g>
      <path class="cls-2" d="m38.08,27.44s.02.02.03.03c-.06.19-.12.38-.2.57-.74,1.75-1.87,3.22-3.35,4.4-3.82,3.05-8.24,3.92-13,3.43-.91-.1-1.79-.35-2.68-.52.14.21.37.3.58.42,3.05,1.74,6.31,2.34,9.77,1.75,7.54-1.28,12.87-8.16,12.08-15.93,0-.09,0-.19-.12-.22-.1.04-.12.14-.16.22-1.21,2.41-3.1,4.08-5.55,5.13-3.18,1.37-6.48,1.57-9.85.87-1.93-.4-3.71-1.13-5.29-2.33-.39-.3-.39-.35-.04-.71.55-.55,1.1-1.1,1.65-1.65.22-.22.45-.45.35-.8-.1-.35-.41-.42-.72-.49-1.41-.31-2.83-.62-4.24-.94-2.66-.59-5.31-1.18-7.97-1.76-.7-.15-1.04.16-.9.83.9,4.12,1.8,8.25,2.71,12.37.16.71.68.86,1.2.35.56-.54,1.1-1.1,1.65-1.65q.42-.42.89-.09c2.02,1.42,4.31,2.17,6.72,2.51,1.85.26,3.71.24,5.57-.05,3.38-.53,6.44-1.77,9.08-4,.64-.54,1.18-1.17,1.78-1.74Z"/>
      <path class="cls-2" d="m18.89,35.34c.89.17,1.77.43,2.68.52,4.77.5,9.18-.37,13-3.43,1.48-1.18,2.61-2.65,3.35-4.4.08-.18.13-.38.2-.57.02-.05.01-.06-.03-.03-.61.57-1.15,1.2-1.78,1.74-2.63,2.23-5.69,3.47-9.08,4-1.86.29-3.72.31-5.57.05-2.41-.34-4.7-1.09-6.72-2.51q-.47-.33-.89.09c-.55.55-1.1,1.1-1.65,1.65-.52.51-1.04.36-1.2-.35-.91-4.12-1.81-8.24-2.71-12.37-.15-.67.2-.98.9-.83,2.66.58,5.31,1.17,7.97,1.76,1.41.31,2.83.62,4.24.94.31.07.62.14.72.49.1.35-.12.58-.35.8-.55.55-1.1,1.1-1.65,1.65-.35.35-.35.41.04.71,1.58,1.2,3.36,1.93,5.29,2.33,3.37.7,6.67.5,9.85-.87,2.45-1.05,4.34-2.73,5.55-5.13.04-.08.06-.18.16-.22.12.03.11.14.12.22.79,7.77-4.54,14.65-12.08,15.93-3.46.59-6.72,0-9.77-1.75-.21-.12-.44-.21-.58-.42h0Z"/>
      <path class="cls-2" d="m30.43,23.76c-.83,0-1.66.01-2.49,0-.39,0-.53.15-.52.52.02.59,0,1.18,0,1.77,0,.36-.16.49-.51.4-.12-.03-.24-.04-.36-.05-.29-.05-.45-.19-.44-.51.01-.55,0-1.1,0-1.65,0-.34-.13-.49-.48-.48-.63.01-1.26,0-1.89,0-.31,0-.4-.08-.21-.36.09-.13.18-.28.2-.43.08-.48.37-.59.81-.56.39.03.78,0,1.17,0,.26,0,.4-.13.4-.39,0-1.51,0-3.03,0-4.54,0-.26-.13-.39-.39-.39-1.47,0-2.95,0-4.42,0-.29,0-.4.17-.47.41-.17.59-.33,1.19-.42,1.8-.05.35-.22.43-.55.36-.84-.19-.84-.17-.66-1.01.08-.38.16-.76.26-1.14.07-.27,0-.42-.29-.42-.9,0-1.8,0-2.69,0-.21,0-.36.09-.45.28-.14.29-.29.58-.41.87-.12.3-.29.42-.62.33-.45-.12-.92-.2-1.37-.3-.55-.13-.58-.18-.37-.7.57-1.4,1.34-2.69,2.31-3.84,2.43-2.88,5.52-4.64,9.24-5.12,6.78-.88,13,2.8,15.56,9.09.25.61.22,1.24.09,1.86-.18.86-.64,1.59-1.17,2.27-.07.09-.14.24-.27.21-.14-.03-.11-.2-.12-.31-.18-1.42-.58-2.77-1.2-4.07-.2-.42-.46-.59-.93-.57-.76.03-1.53.02-2.29,0-.35,0-.45.12-.36.47.37,1.4.6,2.83.64,4.28.01.49.13.59.61.59.91,0,1.82,0,2.73.01.14,0,.33-.04.39.12.06.17-.14.23-.23.34-.61.68-1.35,1.03-2.28.88-.21-.03-.43,0-.64,0-.45,0-.55.11-.58.57-.05.86-.22,1.05-1.06,1.24-.21.05-.31-.01-.3-.23.02-.35.06-.69.07-1.04.01-.48-.04-.54-.52-.54-.83,0-1.66,0-2.49,0Zm-.02-1.35c.83,0,1.66,0,2.49,0,.49,0,.56-.07.54-.57,0-.24-.06-.48-.07-.72-.08-1.23-.3-2.44-.65-3.63-.09-.31-.26-.43-.58-.43-1.41.01-2.81.01-4.22,0-.36,0-.51.13-.5.49,0,1.45,0,2.89,0,4.34,0,.36.14.51.5.51.83-.01,1.66,0,2.49,0Zm-.68-6.69h0c.59,0,1.18,0,1.77,0,.49,0,.54-.08.34-.51-.37-.78-.81-1.51-1.37-2.17-.7-.82-1.49-1.51-2.54-1.83-.39-.12-.5-.05-.5.36,0,1.23,0,2.46,0,3.7,0,.32.13.47.46.46.62-.01,1.23,0,1.85,0Zm-5.89,0c.6,0,1.21,0,1.81,0,.34,0,.49-.14.48-.48-.01-.67,0-1.34,0-2.01,0-.58,0-1.15,0-1.73,0-.3-.14-.41-.44-.32-.31.09-.61.22-.88.38-1.49.88-2.42,2.23-3.14,3.76-.14.31.03.38.29.38.63,0,1.26,0,1.89,0Zm7.41-3.89s.01.09.03.11c.92,1.03,1.59,2.21,2.12,3.48.1.24.28.3.51.3.68,0,1.36,0,2.05,0,.12,0,.27.04.33-.08.08-.15-.07-.24-.15-.34-1.23-1.47-2.72-2.6-4.48-3.37-.13-.06-.25-.16-.42-.09Zm-12.65,3.89h0c.34,0,.67,0,1,0,.29.01.47-.1.59-.38.49-1.18,1.13-2.28,1.96-3.26.06-.07.16-.14.07-.24-.06-.07-.15,0-.22.02-1.85.78-3.4,1.96-4.68,3.52-.16.2-.12.32.14.32.38,0,.75,0,1.13,0Z"/>
      <path class="cls-2" d="m38.08,27.44s.06-.02.03.03c-.01,0-.02-.02-.03-.03Z"/>
    </g>
    <text class="cls-3" transform="translate(53.08 30.33)"><tspan x="0" y="0">Sal</tspan><tspan class="cls-1" x="22.21" y="0">v</tspan><tspan x="30.33" y="0">ar</tspan></text>
  </g>
</svg>