<?xml version="1.0" encoding="UTF-8"?>
<svg id="Camada_2" data-name="Camada 2" xmlns="http://www.w3.org/2000/svg" viewBox="0 0 33.27 33.27">
  <defs>
    <style>
      .cls-1 {
        fill: #fff;
      }

      .cls-2 {
        fill: #e32121;
      }
    </style>
  </defs>
  <g id="Camada_1-2" data-name="Camada 1">
    <g>
      <path class="cls-2" d="m33.27,16.68c0,9.17-7.47,16.61-16.68,16.59C7.49,33.25.04,25.92,0,16.71-.04,7.48,7.37,0,16.64,0c9.36,0,16.66,7.59,16.63,16.68Z"/>
      <path class="cls-1" d="m23.22,18.72c-1.23,0-2.47,0-3.7,0-.65,0-.87.22-.87.86,0,1.07,0,2.14,0,3.21,0,.2.05.36.17.53.59.83.47,1.88-.28,2.56-.73.65-1.81.66-2.55,0-.73-.64-.87-1.71-.31-2.53.13-.19.19-.37.19-.6-.01-1.07,0-2.14,0-3.21,0-.6-.22-.81-.82-.81-1.64,0-3.29,0-4.93,0-.58,0-.83.24-.83.82,0,1.08,0,2.17,0,3.25,0,.19.07.33.17.49.6.85.49,1.93-.26,2.6-.74.66-1.84.65-2.59-.03-.73-.65-.83-1.72-.22-2.57.12-.17.17-.33.17-.53,0-3.71,0-7.43,0-11.14,0-.22-.06-.38-.19-.56-.59-.81-.47-1.89.27-2.56.69-.63,1.81-.64,2.53-.04.75.64.91,1.75.34,2.56-.14.21-.19.4-.19.64,0,1.17,0,2.33,0,3.5,0,.57.2.78.76.78,1.69,0,3.37,0,5.06,0,.52,0,.74-.22.74-.75,0-1.21,0-2.41,0-3.62,0-.19-.04-.33-.15-.49-.59-.85-.46-1.93.3-2.59.72-.63,1.84-.61,2.55.03.74.67.84,1.77.22,2.6-.11.15-.14.28-.14.45,0,1.19,0,2.39,0,3.58,0,.58.22.8.79.8,1.67,0,3.34,0,5.02,0,.56,0,.77-.21.77-.76,0-1.23,0-2.47,0-3.7,0-.17-.04-.31-.14-.45-.56-.84-.42-1.92.34-2.56.74-.63,1.85-.6,2.55.06.75.7.84,1.77.2,2.6-.14.17-.15.34-.15.53,0,2.04,0,4.08,0,6.13,0,.61-.31.94-.93.95-1.29.01-2.58,0-3.87,0Z"/>
    </g>
  </g>
</svg>